<svg width="900" height="1100" viewBox="0 0 900 1100" fill="none" xmlns="http://www.w3.org/2000/svg">
  <rect width="900" height="1100" rx="48" fill="#F5F8FC"/>
  <rect x="120" y="90" width="660" height="920" rx="48" fill="#1A3A5C"/>
  <rect x="160" y="140" width="580" height="810" rx="36" fill="white"/>
  <rect x="190" y="180" width="250" height="28" rx="14" fill="#E8EEF5"/>
  <rect x="190" y="224" width="134" height="16" rx="8" fill="#C8D8E8"/>
  <rect x="190" y="270" width="520" height="92" rx="20" fill="#E8EEF5"/>
  <rect x="214" y="294" width="90" height="44" rx="12" fill="#1A3A5C"/>
  <rect x="320" y="294" width="180" height="18" rx="9" fill="#1A3A5C"/>
  <rect x="320" y="322" width="140" height="12" rx="6" fill="#8FA6BA"/>
  <rect x="190" y="392" width="520" height="120" rx="24" fill="#FCFCFD" stroke="#E2E8EF"/>
  <rect x="214" y="416" width="130" height="12" rx="6" fill="#1A3A5C"/>
  <rect x="214" y="438" width="220" height="10" rx="5" fill="#8FA6BA"/>
  <rect x="214" y="462" width="180" height="10" rx="5" fill="#8FA6BA"/>
  <rect x="620" y="404" width="70" height="70" rx="20" fill="#E98C4B"/>
  <rect x="190" y="542" width="240" height="18" rx="9" fill="#1A3A5C"/>
  <rect x="190" y="575" width="520" height="110" rx="24" fill="#FFF8F3" stroke="#F3D0B6"/>
  <rect x="214" y="602" width="140" height="12" rx="6" fill="#1A3A5C"/>
  <rect x="214" y="626" width="220" height="10" rx="5" fill="#8FA6BA"/>
  <circle cx="650" cy="628" r="36" fill="#E98C4B" fill-opacity="0.2"/>
  <circle cx="650" cy="628" r="24" fill="#E98C4B"/>
  <rect x="190" y="707" width="520" height="150" rx="24" fill="#F9FBFE" stroke="#E2E8EF"/>
  <rect x="214" y="734" width="160" height="12" rx="6" fill="#1A3A5C"/>
  <rect x="214" y="760" width="180" height="10" rx="5" fill="#8FA6BA"/>
  <rect x="214" y="784" width="150" height="10" rx="5" fill="#8FA6BA"/>
  <rect x="600" y="734" width="90" height="90" rx="20" fill="#1A3A5C"/>
</svg>